<svg preserveAspectRatio="none" width="100%" height="100%" overflow="visible" style="display: block;" viewBox="0 0 32 32" fill="none" xmlns="http://www.w3.org/2000/svg">
<g id="Group">
<path id="Vector" d="M16 32C24.8365 32 32 24.8365 32 16C32 7.16345 24.8365 0 16 0C7.16345 0 0 7.16345 0 16C0 24.8365 7.16345 32 16 32Z" fill="#005B13"/>
<path id="Vector_2" d="M27.3332 8.66675V12.6667L26.6665 12.0001V8.66675H25.9998V11.3334L25.3332 10.6667V8.66675H24.6665V10.0001L23.3332 8.66675V9.3334V10.0001L23.9998 10.6667L24.6665 11.3334V13.3334L23.9998 14.6667L23.3332 14.0001H22.6665V14.6667L21.9998 15.3334L21.3332 14.6667H20.6665L21.3332 16.0001H21.9998H22.6665L23.3332 15.3334H24.6665L25.3332 14.0001V12.0001L25.9998 12.6667V14.6667L26.6665 13.3334L27.3332 14.0001L25.9998 15.3334V16.0001H26.6665L27.9998 14.6667V8.66675H27.3332Z" fill="white"/>
<path id="Vector_3" d="M5.33335 11.3334L6 12.0001V13.3334H6.66665V12.0001L7.33335 11.3334H8V8.66675H7.33335V10.3334V10.6667H6.66665V8.66675H6V10.6667H5.33335V9.3334H4.66667V10.6667H4V12.0001H4.66667L5.33335 11.3334Z" fill="white"/>
<path id="Vector_4" d="M8.66685 15.3334L9.3335 14.6667V13.3334V12.6667H11.3335V12.0001H9.3335V8.66675H8.66685V12.0001H7.3335V13.3334H7.86685L7.3335 14.0001H6.66685V14.6667H7.3335L8.00015 14.0001L8.56685 13.3334H8.66685V14.0001L7.3335 15.3334H6.66685L6.00015 14.6667V14.0001H5.3335V15.3334L6.00015 16.0001H8.00015L8.66685 15.3334Z" fill="white"/>
<path id="Vector_5" d="M10.6666 13.3333H10V13.9999H10.6666V13.3333Z" fill="white"/>
<path id="Vector_6" d="M11.3334 9.3334V8.66675H10.6666V9.3334L10 10.0001V10.6667L10.6666 10.0001L11.3334 9.3334Z" fill="white"/>
<path id="Vector_7" d="M11.3331 10.6667H10.6665V11.3334H11.3331V10.6667Z" fill="white"/>
<path id="Vector_8" d="M4.66667 14.6667H4V15.3334L4.66667 16.0001H5.33335L4.66667 15.3334V14.6667Z" fill="white"/>
<path id="Vector_9" d="M16.6667 8.66675H16V10.0001V10.6667L15.3334 10.0001V8.66675H14.6666V10.0001L14 10.6667V9.3334L13.3334 8.66675L12.6666 10.6667V9.3334H12V10.6667L12.6666 11.3334L13.3334 10.6667L14 11.3334H14.6666V10.6667H15.3334V11.3334H16L16.6667 10.6667V8.66675Z" fill="white"/>
<path id="Vector_10" d="M17.3332 15.9999H17.9998V15.3333H16.6665L17.3332 15.9999Z" fill="white"/>
<path id="Vector_11" d="M20.6668 8.66675H20.0002V12.6667L19.3335 11.3334L18.6668 10.0001V8.66675H18.0002V9.3334L17.3335 8.66675V10.0001L18.0002 10.6667V12.6667V13.3334H16.0002L16.6668 12.6667L17.3335 12.0001L16.6668 11.3334H16.0002V12.0001L15.3335 12.6667L14.6669 13.3334V14.0001H16.0002L15.3335 14.6667V15.3334L14.0001 14.0001V12.0001H13.3335V13.3334V14.0001L12.0001 15.3334H11.3335L12.0001 14.6667L12.6669 14.0001V12.6667V12.0001H12.0001V14.0001H11.3335L9.3335 15.3334V16.0001H10.0001L10.6669 15.3334L11.3335 16.0001H12.6669L14.0001 14.6667V15.3334L14.6669 16.0001H15.3335H16.0002V14.6667L18.0002 14.0001V15.3334L18.6668 14.6667V11.3334L20.0002 14.0001L19.3335 15.3334H18.6668L19.3335 16.0001H20.0002L20.6668 14.6667V8.66675Z" fill="white"/>
<path id="Vector_12" d="M22.0002 8.66675H21.3335V14.0001H22.0002V8.66675Z" fill="white"/>
<path id="Vector_13" d="M22.6665 11.3334H23.3332L23.9998 10.6667H22.6665V11.3334Z" fill="white"/>
<path id="Vector_14" d="M23.9998 12H22.6665V12.6666H23.3332L23.9998 12Z" fill="white"/>
<path id="Vector_15" d="M24 21.3333H23.3333V21.9999H6L8 23.3333H23.3333V23.9999H24V23.3333H24.6667L25.3333 23.9999H26V21.9999H24V21.3333Z" fill="white"/>
<path id="Vector_16" d="M4.66667 12.6667L4 13.3334V14.0001L5.33335 12.6667H4.66667Z" fill="white"/>
</g>
</svg>
