<svg preserveAspectRatio="none" overflow="visible" style="display: block;" width="21.5" height="21.5" viewBox="0 0 21.5 21.5" fill="none" xmlns="http://www.w3.org/2000/svg">
<g id="Group">
<path id="Vector" d="M12.75 0.972C12.1033 0.84 11.4367 0.773333 10.75 0.772C5.227 0.772 0.75 5.244 0.75 10.761C0.75 16.278 5.227 20.75 10.75 20.75C16.273 20.75 20.75 16.278 20.75 10.761C20.7487 10.0763 20.682 9.41033 20.55 8.763" stroke="#03AA8C" stroke-width="1.5" stroke-linecap="round"/>
<path id="Vector_2" d="M10.75 7.764C9.645 7.764 8.75 8.435 8.75 9.263C8.75 10.09 9.645 10.761 10.75 10.761C11.855 10.761 12.75 11.431 12.75 12.259C12.75 13.087 11.855 13.758 10.75 13.758M10.75 7.764C11.62 7.764 12.362 8.181 12.636 8.764M10.75 7.764V6.765M10.75 13.758C9.88 13.758 9.138 13.341 8.864 12.758M10.75 13.758V14.757" stroke="#03AA8C" stroke-width="1.5" stroke-linecap="round"/>
<path id="Vector_3" d="M20.745 0.75L16.57 4.924M15.746 1.271L15.864 4.359C15.864 5.087 16.299 5.541 17.092 5.598L20.216 5.745" stroke="#03AA8C" stroke-width="1.5" stroke-linecap="round" stroke-linejoin="round"/>
</g>
</svg>
