<svg preserveAspectRatio="none" width="100%" height="100%" overflow="visible" style="display: block;" viewBox="0 0 24 24" fill="none" xmlns="http://www.w3.org/2000/svg">
<g id="ep:circle-check-filled">
<path id="Vector" d="M13 1.5C15.7848 1.5 18.4555 2.60625 20.4246 4.57538C22.3938 6.54451 23.5 9.21523 23.5 12C23.5 14.7848 22.3938 17.4555 20.4246 19.4246C18.4555 21.3938 15.7848 22.5 13 22.5C10.2152 22.5 7.54451 21.3938 5.57538 19.4246C3.60625 17.4555 2.5 14.7848 2.5 12C2.5 9.21523 3.60625 6.54451 5.57538 4.57538C7.54451 2.60625 10.2152 1.5 13 1.5ZM11.6922 14.0719L9.36016 11.7375C9.19139 11.5684 8.96237 11.4733 8.72349 11.4731C8.4846 11.4729 8.2554 11.5676 8.08633 11.7363C7.91725 11.9051 7.82214 12.1341 7.82192 12.373C7.8217 12.6119 7.91639 12.8411 8.08516 13.0102L11.057 15.9844C11.1404 16.0682 11.2396 16.1347 11.3488 16.1801C11.458 16.2255 11.5751 16.2489 11.6934 16.2489C11.8116 16.2489 11.9287 16.2255 12.0379 16.1801C12.1471 16.1347 12.2463 16.0682 12.3297 15.9844L18.4797 9.83203C18.5653 9.74892 18.6335 9.64962 18.6803 9.53991C18.7272 9.4302 18.7518 9.31227 18.7526 9.19298C18.7535 9.07369 18.7307 8.95541 18.6854 8.84503C18.6402 8.73465 18.5734 8.63436 18.4891 8.55001C18.4047 8.46565 18.3044 8.39891 18.194 8.35366C18.0837 8.30841 17.9654 8.28555 17.8461 8.28643C17.7268 8.2873 17.6089 8.31188 17.4992 8.35874C17.3894 8.40559 17.2901 8.4738 17.207 8.55938L11.6922 14.0719Z" fill="#2853BB"/>
</g>
</svg>
