<svg preserveAspectRatio="none" overflow="visible" style="display: block;" width="20" height="20" viewBox="0 0 20 20" fill="none" xmlns="http://www.w3.org/2000/svg">
<g id="Group">
<path id="Vector" d="M0.75 10H4C4.53043 10 5.03914 10.2107 5.41421 10.5858C5.78929 10.9609 6 11.4696 6 12C6 12.5304 6.21071 13.0391 6.58579 13.4142C6.96086 13.7893 7.46957 14 8 14H12C12.5304 14 13.0391 13.7893 13.4142 13.4142C13.7893 13.0391 14 12.5304 14 12C14 11.4696 14.2107 10.9609 14.5858 10.5858C14.9609 10.2107 15.4696 10 16 10H19.25" stroke="#605BBF" stroke-width="1.5" stroke-linecap="round" stroke-linejoin="round"/>
<path id="Vector_2" d="M19.25 8.375V13.25C19.25 14.8413 18.6179 16.3674 17.4926 17.4926C16.3674 18.6179 14.8413 19.25 13.25 19.25H6.75C5.1587 19.25 3.63258 18.6179 2.50736 17.4926C1.38214 16.3674 0.75 14.8413 0.75 13.25V6.75C0.75 5.1587 1.38214 3.63258 2.50736 2.50736C3.63258 1.38214 5.1587 0.75 6.75 0.75H11.625" stroke="#605BBF" stroke-width="1.5" stroke-linecap="round"/>
<path id="Vector_3" d="M16.957 5.75V0.75" stroke="#605BBF" stroke-width="1.5" stroke-miterlimit="10" stroke-linecap="round"/>
<path id="Vector_4" d="M14.664 3.645L16.631 5.612C16.6737 5.65493 16.7245 5.689 16.7805 5.71225C16.8364 5.7355 16.8964 5.74746 16.957 5.74746C17.0176 5.74746 17.0776 5.7355 17.1335 5.71225C17.1895 5.689 17.2403 5.65493 17.283 5.612L19.25 3.645" stroke="#605BBF" stroke-width="1.5" stroke-linecap="round" stroke-linejoin="round"/>
</g>
</svg>
